<svg xmlns="http://www.w3.org/2000/svg" xmlns:xlink="http://www.w3.org/1999/xlink" width="1920" zoomAndPan="magnify" viewBox="0 0 1440 809.999993" height="1080" preserveAspectRatio="xMidYMid meet" version="1.0"><defs><g/><clipPath id="2af4381dbf"><path d="M 309.070312 341.800781 L 454.570312 341.800781 L 454.570312 594.550781 L 309.070312 594.550781 Z M 309.070312 341.800781 " clip-rule="nonzero"/></clipPath><clipPath id="a7dd798c44"><path d="M 354.070312 341.800781 L 409.734375 341.800781 C 434.585938 341.800781 454.730469 361.949219 454.730469 386.800781 L 454.730469 549.589844 C 454.730469 574.441406 434.585938 594.585938 409.734375 594.585938 L 354.070312 594.585938 C 329.21875 594.585938 309.070312 574.441406 309.070312 549.589844 L 309.070312 386.800781 C 309.070312 361.949219 329.21875 341.800781 354.070312 341.800781 Z M 354.070312 341.800781 " clip-rule="nonzero"/></clipPath><clipPath id="abd5bd2fed"><path d="M 236.238281 278.605469 L 381.902344 278.605469 L 381.902344 531.808594 L 236.238281 531.808594 Z M 236.238281 278.605469 " clip-rule="nonzero"/></clipPath><clipPath id="30f84afa5f"><path d="M 281.238281 278.605469 L 336.902344 278.605469 C 361.753906 278.605469 381.902344 298.75 381.902344 323.605469 L 381.902344 486.394531 C 381.902344 511.25 361.753906 531.394531 336.902344 531.394531 L 281.238281 531.394531 C 256.382812 531.394531 236.238281 511.25 236.238281 486.394531 L 236.238281 323.605469 C 236.238281 298.75 256.382812 278.605469 281.238281 278.605469 Z M 281.238281 278.605469 " clip-rule="nonzero"/></clipPath><clipPath id="8501f1b910"><path d="M 163.40625 215.40625 L 308.902344 215.40625 L 308.902344 468.15625 L 163.40625 468.15625 Z M 163.40625 215.40625 " clip-rule="nonzero"/></clipPath><clipPath id="f571fbd25a"><path d="M 208.40625 215.40625 L 264.066406 215.40625 C 288.921875 215.40625 309.066406 235.550781 309.066406 260.402344 L 309.066406 423.191406 C 309.066406 448.042969 288.921875 468.191406 264.066406 468.191406 L 208.40625 468.191406 C 183.550781 468.191406 163.40625 448.042969 163.40625 423.191406 L 163.40625 260.402344 C 163.40625 235.550781 183.550781 215.40625 208.40625 215.40625 Z M 208.40625 215.40625 " clip-rule="nonzero"/></clipPath></defs><rect x="-144" width="1728" fill="#ffffff" y="-80.999999" height="971.999992" fill-opacity="1"/><rect x="-144" width="1728" fill="#ffffff" y="-80.999999" height="971.999992" fill-opacity="1"/><g clip-path="url(#2af4381dbf)"><g clip-path="url(#a7dd798c44)"><path stroke-linecap="butt" transform="matrix(0.75, 0, 0, 0.75, 309.070889, 341.801808)" fill="none" stroke-linejoin="miter" d="M 59.999234 -0.00136954 L 134.217988 -0.00136954 C 167.353406 -0.00136954 194.212783 26.863215 194.212783 59.998633 L 194.212783 277.050728 C 194.212783 310.186146 167.353406 337.045522 134.217988 337.045522 L 59.999234 337.045522 C 26.863816 337.045522 -0.000768764 310.186146 -0.000768764 277.050728 L -0.000768764 59.998633 C -0.000768764 26.863215 26.863816 -0.00136954 59.999234 -0.00136954 Z M 59.999234 -0.00136954 " stroke="#7900ff" stroke-width="30" stroke-opacity="1" stroke-miterlimit="4"/></g></g><g clip-path="url(#abd5bd2fed)"><g clip-path="url(#30f84afa5f)"><path fill="#7900ff" d="M 236.238281 278.605469 L 381.902344 278.605469 L 381.902344 531.242188 L 236.238281 531.242188 Z M 236.238281 278.605469 " fill-opacity="1" fill-rule="nonzero"/></g></g><g clip-path="url(#8501f1b910)"><g clip-path="url(#f571fbd25a)"><path stroke-linecap="butt" transform="matrix(0.75, 0, 0, 0.75, 163.405925, 215.40546)" fill="none" stroke-linejoin="miter" d="M 60.000436 0.00105392 L 134.213981 0.00105392 C 167.354608 0.00105392 194.213985 26.86043 194.213985 59.995849 L 194.213985 277.047943 C 194.213985 310.183361 167.354608 337.047946 134.213981 337.047946 L 60.000436 337.047946 C 26.859809 337.047946 0.000433065 310.183361 0.000433065 277.047943 L 0.000433065 59.995849 C 0.000433065 26.86043 26.859809 0.00105392 60.000436 0.00105392 Z M 60.000436 0.00105392 " stroke="#7900ff" stroke-width="30" stroke-opacity="1" stroke-miterlimit="4"/></g></g><g fill="#7900ff" fill-opacity="1"><g transform="translate(500.070221, 470.184203)"><g><path d="M 108.285156 -61.125 C 105.914062 -45.050781 93.003906 -34.25 76.667969 -34.25 C 59.542969 -34.25 45.578125 -47.425781 45.578125 -66.394531 C 45.578125 -85.097656 59.542969 -98.535156 76.667969 -98.535156 C 85.890625 -98.535156 94.585938 -95.375 101.433594 -86.679688 L 131.207031 -109.867188 C 118.296875 -125.671875 98.535156 -135.949219 76.667969 -135.949219 C 38.464844 -135.949219 7.640625 -104.859375 7.640625 -66.394531 C 7.640625 -28.453125 38.464844 2.898438 76.667969 2.898438 C 113.289062 2.898438 144.117188 -25.554688 146.75 -61.125 Z M 108.285156 -61.125 "/></g></g></g><g fill="#7900ff" fill-opacity="1"><g transform="translate(654.197635, 470.184203)"><g><path d="M 105.386719 -133.050781 L 105.386719 -123.828125 C 99.589844 -130.152344 84.835938 -135.949219 72.980469 -135.949219 C 37.414062 -135.949219 7.640625 -104.859375 7.640625 -66.394531 C 7.640625 -28.453125 36.621094 2.898438 72.980469 2.898438 C 85.097656 2.898438 99.589844 -1.84375 105.386719 -9.484375 L 105.386719 0 L 142.796875 0 L 142.796875 -133.050781 Z M 76.667969 -34.25 C 59.542969 -34.25 45.578125 -47.425781 45.578125 -66.394531 C 45.578125 -85.097656 59.542969 -98.535156 76.667969 -98.535156 C 94.058594 -98.535156 106.96875 -85.097656 106.96875 -66.394531 C 106.96875 -47.425781 94.058594 -34.25 76.667969 -34.25 Z M 76.667969 -34.25 "/></g></g></g><g fill="#7900ff" fill-opacity="1"><g transform="translate(810.169311, 470.184203)"><g><path d="M 13.171875 -196.28125 L 13.171875 0 L 50.585938 0 L 50.585938 -196.28125 Z M 13.171875 -196.28125 "/></g></g></g><g fill="#7900ff" fill-opacity="1"><g transform="translate(873.927992, 470.184203)"><g><path d="M 91.160156 -98.535156 L 91.160156 -133.050781 L 59.542969 -133.050781 L 59.542969 -177.574219 L 22.132812 -150.4375 L 22.132812 -133.050781 L 2.109375 -133.050781 L 2.109375 -98.535156 L 22.132812 -98.535156 L 22.132812 -55.0625 C 22.132812 -20.550781 50.585938 2.898438 90.367188 2.898438 L 90.367188 -34.25 C 73.242188 -34.25 59.542969 -41.101562 59.542969 -56.117188 L 59.542969 -98.535156 Z M 91.160156 -98.535156 "/></g></g></g><g fill="#7900ff" fill-opacity="1"><g transform="translate(969.039073, 470.184203)"><g><path d="M 108.546875 -47.6875 C 102.488281 -38.203125 91.160156 -34.25 79.832031 -34.25 C 75.878906 -34.25 72.191406 -34.515625 68.765625 -35.832031 L 143.0625 -89.050781 C 134.894531 -113.816406 109.601562 -135.949219 76.667969 -135.949219 C 38.464844 -135.949219 7.640625 -104.859375 7.640625 -66.394531 C 7.640625 -28.453125 39.785156 2.898438 79.832031 2.898438 C 103.542969 2.898438 126.992188 -7.902344 138.320312 -24.765625 Z M 45.578125 -66.394531 C 45.578125 -85.097656 59.542969 -98.535156 76.667969 -98.535156 C 83.78125 -98.535156 89.84375 -96.164062 95.109375 -92.214844 L 46.632812 -57.699219 C 45.84375 -60.332031 45.578125 -63.230469 45.578125 -66.394531 Z M 45.578125 -66.394531 "/></g></g></g><g fill="#7900ff" fill-opacity="1"><g transform="translate(1119.741404, 470.184203)"><g><path d="M 147.277344 -66.394531 C 147.277344 -104.859375 121.984375 -135.949219 85.625 -135.949219 C 73.507812 -135.949219 57.960938 -132.261719 50.585938 -123.828125 L 50.585938 -133.050781 L 13.171875 -133.050781 L 13.171875 0 L 50.585938 0 L 50.585938 -66.394531 C 50.585938 -87.734375 65.867188 -98.535156 82.464844 -98.535156 C 97.746094 -98.535156 110.128906 -87.734375 110.128906 -66.394531 L 110.128906 0 L 147.277344 0 Z M 147.277344 -66.394531 "/></g></g></g></svg>